G04 #@! TF.GenerationSoftware,KiCad,Pcbnew,(5.1.0)-1*
G04 #@! TF.CreationDate,2020-06-01T21:20:53-04:00*
G04 #@! TF.ProjectId,NixieAnalyzer,4e697869-6541-46e6-916c-797a65722e6b,rev?*
G04 #@! TF.SameCoordinates,Original*
G04 #@! TF.FileFunction,Paste,Top*
G04 #@! TF.FilePolarity,Positive*
%FSLAX46Y46*%
G04 Gerber Fmt 4.6, Leading zero omitted, Abs format (unit mm)*
G04 Created by KiCad (PCBNEW (5.1.0)-1) date 2020-06-01 21:20:53*
%MOMM*%
%LPD*%
G04 APERTURE LIST*
%ADD10C,0.120000*%
G04 APERTURE END LIST*
D10*
X318452500Y-174053500D02*
G75*
G02X320992500Y-174053500I1270000J0D01*
G01*
X320992500Y-169354500D02*
G75*
G02X318452500Y-169354500I-1270000J0D01*
G01*
X337820000Y-158432500D02*
G75*
G02X337820000Y-155892500I0J1270000D01*
G01*
X333121000Y-155892500D02*
G75*
G02X333121000Y-158432500I0J-1270000D01*
G01*
X291782500Y-158432500D02*
G75*
G02X291782500Y-155892500I0J1270000D01*
G01*
X287083500Y-155892500D02*
G75*
G02X287083500Y-158432500I0J-1270000D01*
G01*
X247205500Y-155892500D02*
G75*
G02X247205500Y-158432500I0J-1270000D01*
G01*
X251904500Y-158432500D02*
G75*
G02X251904500Y-155892500I0J1270000D01*
G01*
X115062000Y-174034000D02*
G75*
G02X117602000Y-174034000I1270000J44000D01*
G01*
X117602000Y-169354500D02*
G75*
G02X115062000Y-169354500I-1270000J0D01*
G01*
X99651000Y-155892500D02*
G75*
G02X99651000Y-158432500I0J-1270000D01*
G01*
X104330500Y-158432500D02*
G75*
G02X104330500Y-155892500I0J1270000D01*
G01*
X151447500Y-158432500D02*
G75*
G02X151447500Y-155892500I0J1270000D01*
G01*
X146748500Y-155892500D02*
G75*
G02X146748500Y-158432500I0J-1270000D01*
G01*
X199644000Y-158432500D02*
G75*
G02X199644000Y-155892500I0J1270000D01*
G01*
X194964500Y-155892500D02*
G75*
G02X194964500Y-158432500I0J-1270000D01*
G01*
X81470500Y-72263000D02*
G75*
G02X82994500Y-70739000I1524000J0D01*
G01*
X354076000Y-70739000D02*
G75*
G02X355600000Y-72263000I0J-1524000D01*
G01*
X355600000Y-154368500D02*
G75*
G02X354076000Y-155892500I-1524000J0D01*
G01*
X82994500Y-155892500D02*
G75*
G02X81470500Y-154368500I0J1524000D01*
G01*
X337820000Y-158432500D02*
X346456000Y-158432500D01*
X333121000Y-158432500D02*
X322389500Y-158432500D01*
X331343000Y-155892500D02*
X333121000Y-155892500D01*
X320992500Y-169354500D02*
X320992500Y-161905500D01*
X320992500Y-183959500D02*
X320992500Y-174053500D01*
X318452500Y-174053500D02*
X318452500Y-184023000D01*
X318452500Y-159829500D02*
X318452500Y-169354500D01*
X291782500Y-158432500D02*
X317055500Y-158432500D01*
X251904500Y-158432500D02*
X287083500Y-158432500D01*
X199644000Y-158432500D02*
X247205500Y-158432500D01*
X151447500Y-158432500D02*
X194964500Y-158432500D01*
X118999000Y-158432500D02*
X146748500Y-158432500D01*
X117602000Y-169354500D02*
X117602000Y-159829500D01*
X117602000Y-184023000D02*
X117602000Y-174034000D01*
X115062000Y-174034000D02*
X115062000Y-183959500D01*
X115062000Y-159829500D02*
X115062000Y-169354500D01*
X104330500Y-158432500D02*
X113665000Y-158432500D01*
X99651000Y-158432500D02*
X89598500Y-158432500D01*
X337820000Y-155892500D02*
X354076000Y-155892500D01*
X291782500Y-155892500D02*
X331343000Y-155892500D01*
X251904500Y-155892500D02*
X287083500Y-155892500D01*
X199644000Y-155892500D02*
X247205500Y-155892500D01*
X151447500Y-155892500D02*
X194964500Y-155892500D01*
X104330500Y-155892500D02*
X146748500Y-155892500D01*
X82994500Y-155892500D02*
X99651000Y-155892500D01*
X81470500Y-72263000D02*
X81470500Y-154368500D01*
X354076000Y-70739000D02*
X82994500Y-70739000D01*
X355600000Y-154368500D02*
X355600000Y-72263000D01*
X322389500Y-185356500D02*
X346456000Y-185356500D01*
X322389500Y-185356500D02*
G75*
G02X320992500Y-183959500I0J1397000D01*
G01*
X347853000Y-183959500D02*
G75*
G02X346456000Y-185356500I-1397000J0D01*
G01*
X346456000Y-158432500D02*
G75*
G02X347853000Y-159829500I0J-1397000D01*
G01*
X347853000Y-159829500D02*
X347853000Y-183959500D01*
X320992500Y-161905500D02*
X320992500Y-159829500D01*
X320992500Y-159829500D02*
G75*
G02X322389500Y-158432500I1397000J0D01*
G01*
X88201500Y-159829500D02*
G75*
G02X89598500Y-158432500I1397000J0D01*
G01*
X89598500Y-185356500D02*
G75*
G02X88201500Y-183959500I0J1397000D01*
G01*
X115062000Y-183959500D02*
G75*
G02X113665000Y-185356500I-1397000J0D01*
G01*
X113665000Y-158432500D02*
G75*
G02X115062000Y-159829500I0J-1397000D01*
G01*
X88201500Y-161925000D02*
X88201500Y-159829500D01*
X89598500Y-185356500D02*
X113665000Y-185356500D01*
X88201500Y-161925000D02*
X88201500Y-183959500D01*
X317055500Y-158432500D02*
G75*
G02X318452500Y-159829500I0J-1397000D01*
G01*
X318452500Y-184023000D02*
G75*
G02X317055500Y-185420000I-1397000J0D01*
G01*
X118999000Y-185420000D02*
G75*
G02X117602000Y-184023000I0J1397000D01*
G01*
X117602000Y-159829500D02*
G75*
G02X118999000Y-158432500I1397000J0D01*
G01*
X118999000Y-185420000D02*
X123444000Y-185420000D01*
X123444000Y-185420000D02*
X317055500Y-185420000D01*
M02*
