M48
; DRILL file {KiCad (5.1.0)-1} date 6/1/2020 9:20:40 PM
; FORMAT={-:-/ absolute / inch / decimal}
; #@! TF.CreationDate,2020-06-01T21:20:40-04:00
; #@! TF.GenerationSoftware,Kicad,Pcbnew,(5.1.0)-1
FMAT,2
INCH
T1C0.0157
T2C0.0295
T3C0.0315
T4C0.0394
T5C0.0433
T6C0.0472
T7C0.0512
T8C0.0630
T9C0.0197
T10C0.1378
T11C0.4370
%
G90
G05
T1
X4.34Y-4.6475
X4.4393Y-3.8007
X4.48Y-5.235
X4.48Y-5.72
X4.5125Y-3.3475
X4.5275Y-5.1
X4.55Y-2.8225
X4.5625Y-6.0975
X4.5925Y-5.6775
X4.62Y-3.3575
X4.645Y-2.8625
X4.665Y-3.6275
X4.695Y-2.92
X4.8325Y-5.8495
X5.09Y-5.1369
X5.12Y-6.0975
X5.1775Y-3.3394
X5.3625Y-5.3294
X5.385Y-6.0444
X5.425Y-5.822
X5.4625Y-5.7525
X5.605Y-5.8495
X5.605Y-5.8495
X5.8625Y-5.1369
X5.8625Y-5.1369
X5.8825Y-6.0975
X5.95Y-3.3394
X5.95Y-3.3394
X6.135Y-5.3294
X6.135Y-5.3294
X6.1575Y-6.0444
X6.1575Y-6.0444
X6.1975Y-5.822
X6.1975Y-5.822
X6.2375Y-5.76
X6.265Y-6.0975
X6.3666Y-5.8498
X6.3666Y-5.8498
X6.6241Y-5.1373
X6.6241Y-5.1373
X6.6475Y-6.0975
X6.7116Y-3.3398
X6.7116Y-3.3398
X6.8966Y-5.3298
X6.8966Y-5.3298
X6.9191Y-6.0448
X6.9191Y-6.0448
X6.9591Y-5.8223
X6.9591Y-5.8223
X7.0017Y-5.7708
X7.1287Y-5.8498
X7.1287Y-5.8498
X7.3862Y-5.1373
X7.3862Y-5.1373
X7.4Y-6.0975
X7.4737Y-3.3398
X7.4737Y-3.3398
X7.6587Y-5.3298
X7.6587Y-5.3298
X7.6812Y-6.0448
X7.6812Y-6.0448
X7.7212Y-5.8223
X7.7212Y-5.8223
X7.7675Y-5.7675
X7.8225Y-6.0975
X7.8866Y-5.8497
X7.8866Y-5.8497
X8.1441Y-5.1372
X8.1441Y-5.1372
X8.165Y-6.0975
X8.2316Y-3.3397
X8.2316Y-3.3397
X8.4166Y-5.3297
X8.4166Y-5.3297
X8.4391Y-6.0447
X8.4391Y-6.0447
X8.4791Y-5.8222
X8.4791Y-5.8222
X8.525Y-5.765
X8.6512Y-5.8498
X8.6512Y-5.8498
X8.9087Y-5.1373
X8.9087Y-5.1373
X8.9325Y-6.0975
X8.9962Y-3.3398
X8.9962Y-3.3398
X9.1812Y-5.3298
X9.1812Y-5.3298
X9.2037Y-6.0448
X9.2037Y-6.0448
X9.2437Y-5.8223
X9.2437Y-5.8223
X9.2842Y-5.7708
X9.3425Y-6.0975
X9.4134Y-5.8498
X9.4134Y-5.8498
X9.6709Y-5.1373
X9.6709Y-5.1373
X9.6975Y-6.0975
X9.7584Y-3.3398
X9.7584Y-3.3398
X9.9434Y-5.3298
X9.9434Y-5.3298
X9.9659Y-6.0448
X9.9659Y-6.0448
X10.0059Y-5.8223
X10.0059Y-5.8223
X10.0475Y-5.775
X10.1787Y-5.8497
X10.1787Y-5.8497
X10.4362Y-5.1372
X10.4362Y-5.1372
X10.4775Y-6.0975
X10.5237Y-3.3397
X10.5237Y-3.3397
X10.7087Y-5.3297
X10.7087Y-5.3297
X10.7312Y-6.0447
X10.7312Y-6.0447
X10.7712Y-5.8222
X10.7712Y-5.8222
X10.8225Y-5.775
X10.87Y-6.0975
X10.9434Y-5.8498
X10.9434Y-5.8498
X11.2009Y-5.1373
X11.2009Y-5.1373
X11.245Y-6.0975
X11.2884Y-3.3398
X11.2884Y-3.3398
X11.4734Y-5.3298
X11.4734Y-5.3298
X11.4959Y-6.0448
X11.4959Y-6.0448
X11.5359Y-5.8223
X11.5359Y-5.8223
X11.57Y-5.77
X11.6984Y-5.8497
X11.6984Y-5.8497
X11.9559Y-5.1372
X11.9559Y-5.1372
X12.0125Y-6.0975
X12.0434Y-3.3397
X12.0434Y-3.3397
X12.2284Y-5.3297
X12.2284Y-5.3297
X12.2509Y-6.0447
X12.2509Y-6.0447
X12.2909Y-5.8222
X12.2909Y-5.8222
X12.3318Y-5.7707
X12.3975Y-3.435
T2
X13.6025Y-4.835
X13.6525Y-4.835
X13.7025Y-4.835
X12.63Y-3.1425
X12.68Y-3.1425
X12.73Y-3.1425
X12.6275Y-2.8775
X12.6775Y-2.8775
X12.7275Y-2.8775
X3.705Y-3.4325
X3.755Y-3.4325
X3.805Y-3.4325
T3
X6.4891Y-3.1548
X6.8891Y-3.1548
X4.8375Y-3.3844
X4.8375Y-3.7845
X5.885Y-4.2069
X5.885Y-4.5069
X10.4753Y-3.8472
X10.5737Y-3.8472
X12.1959Y-4.1547
X12.1959Y-4.5547
X5.9016Y-3.847
X6.0Y-3.847
X3.4516Y-3.7925
X3.55Y-3.7925
X6.4441Y-5.4023
X6.4441Y-5.5023
X6.4441Y-5.6023
X6.4441Y-5.7023
X6.4441Y-5.8023
X6.4441Y-5.9023
X6.4441Y-6.0023
X6.7441Y-5.4023
X6.7441Y-5.5023
X6.7441Y-5.6023
X6.7441Y-5.7023
X6.7441Y-5.8023
X6.7441Y-5.9023
X6.7441Y-6.0023
X8.8037Y-4.7098
X8.9021Y-4.7098
X12.7675Y-4.795
X12.7675Y-5.195
X4.91Y-5.402
X4.91Y-5.5019
X4.91Y-5.6019
X4.91Y-5.702
X4.91Y-5.8019
X4.91Y-5.902
X4.91Y-6.0019
X5.21Y-5.402
X5.21Y-5.5019
X5.21Y-5.6019
X5.21Y-5.702
X5.21Y-5.8019
X5.21Y-5.902
X5.21Y-6.0019
X5.1125Y-4.2069
X5.1125Y-4.5069
X7.3612Y-5.6498
X7.3612Y-5.7482
X7.75Y-5.9241
X7.75Y-6.0225
X4.135Y-5.1475
X4.135Y-5.5475
X10.6737Y-5.6197
X10.6737Y-6.0197
X5.8Y-3.6795
X5.8Y-3.9794
X5.9Y-3.6795
X5.9Y-3.9794
X6.0Y-3.6795
X6.0Y-3.9794
X6.1Y-3.6795
X6.1Y-3.9794
X8.0391Y-4.7097
X8.1375Y-4.7097
X6.5191Y-4.8873
X6.5191Y-5.2873
X11.6634Y-5.3304
X11.6634Y-5.5272
X9.275Y-5.9241
X9.275Y-6.0225
X4.26Y-5.6325
X4.26Y-6.0325
X5.33Y-4.6369
X5.33Y-5.037
X10.6737Y-5.1197
X10.6737Y-5.5197
X9.7984Y-4.8873
X9.7984Y-5.2873
X11.7759Y-5.4022
X11.7759Y-5.5022
X11.7759Y-5.6022
X11.7759Y-5.7022
X11.7759Y-5.8022
X11.7759Y-5.9022
X11.7759Y-6.0022
X12.0759Y-5.4022
X12.0759Y-5.5022
X12.0759Y-5.6022
X12.0759Y-5.7022
X12.0759Y-5.8022
X12.0759Y-5.9022
X12.0759Y-6.0022
X7.8516Y-5.0347
X7.8516Y-5.2316
X12.9125Y-4.825
X12.9125Y-5.125
X6.8641Y-4.6373
X6.8641Y-5.0373
X9.6934Y-4.2073
X9.6934Y-4.5073
X8.9212Y-4.8873
X8.9212Y-5.2873
X4.7191Y-4.5495
X4.8175Y-4.5495
X5.3275Y-5.1194
X5.3275Y-5.5194
X10.1837Y-3.3847
X10.1837Y-3.7847
X8.6237Y-5.6223
X8.6237Y-6.0223
X9.6084Y-3.6798
X9.6084Y-3.9798
X9.7084Y-3.6798
X9.7084Y-3.9798
X9.8084Y-3.6798
X9.8084Y-3.9798
X9.9084Y-3.6798
X9.9084Y-3.9798
X7.0937Y-5.0348
X7.0937Y-5.2317
X11.9684Y-4.8872
X11.9684Y-5.2872
X6.3316Y-5.0348
X6.3316Y-5.2316
X13.29Y-5.2831
X13.29Y-5.48
X11.9784Y-4.2072
X11.9784Y-4.5072
X7.8591Y-5.6222
X7.8591Y-6.0222
X5.3275Y-5.6194
X5.3275Y-6.0194
X10.6762Y-4.1547
X10.6762Y-4.5547
X9.9109Y-4.1548
X9.9109Y-4.5548
X6.5216Y-4.1098
X6.5216Y-4.5098
X10.3312Y-4.7097
X10.4296Y-4.7097
X10.9484Y-3.3848
X10.9484Y-3.7848
X10.805Y-5.9266
X10.805Y-6.025
X13.7775Y-5.455
X13.7775Y-5.5534
X9.1462Y-5.6198
X9.1462Y-6.0198
X6.5991Y-5.6498
X6.5991Y-5.7482
X4.135Y-5.6325
X4.135Y-6.0325
X11.3284Y-4.8873
X11.3284Y-5.2873
X10.3312Y-4.8872
X10.3312Y-5.2872
X7.6262Y-4.1548
X7.6262Y-4.5548
X5.76Y-4.1094
X5.76Y-4.5095
X9.6459Y-5.6498
X9.6459Y-5.7482
X11.4384Y-5.1198
X11.4384Y-5.5198
X13.1275Y-4.96
X13.3244Y-4.96
X6.1025Y-4.6369
X6.1025Y-5.037
X11.5849Y-4.5497
X11.6834Y-4.5497
X9.1487Y-4.1548
X9.1487Y-4.5548
X3.725Y-4.1075
X4.125Y-4.1075
X3.73Y-4.4575
X3.73Y-4.8575
X11.0959Y-4.8873
X11.0959Y-5.2873
X9.5684Y-4.1098
X9.5684Y-4.5098
X7.1012Y-5.6223
X7.1012Y-6.0223
X6.7491Y-4.3998
X6.7491Y-4.7998
X7.0937Y-5.3305
X7.0937Y-5.5273
X12.1934Y-5.1197
X12.1934Y-5.5197
X12.8881Y-3.0175
X13.085Y-3.0175
X8.3816Y-5.1197
X8.3816Y-5.5197
X4.26Y-5.1475
X4.26Y-5.5475
X8.6562Y-3.3848
X8.6562Y-3.7848
X7.3987Y-4.8873
X7.3987Y-5.2873
X5.7275Y-3.1544
X6.1275Y-3.1544
X3.86Y-4.4675
X3.86Y-4.5675
X3.86Y-4.6675
X3.86Y-4.7675
X4.16Y-4.4675
X4.16Y-4.5675
X4.16Y-4.6675
X4.16Y-4.7675
X11.1759Y-5.6498
X11.1759Y-5.7482
X10.9159Y-5.6223
X10.9159Y-6.0223
X6.225Y-5.9241
X6.225Y-6.0225
X8.7287Y-5.4023
X8.7287Y-5.5023
X8.7287Y-5.6023
X8.7287Y-5.7023
X8.7287Y-5.8023
X8.7287Y-5.9023
X8.7287Y-6.0023
X9.0287Y-5.4023
X9.0287Y-5.5023
X9.0287Y-5.6023
X9.0287Y-5.7023
X9.0287Y-5.8023
X9.0287Y-5.9023
X9.0287Y-6.0023
X8.3816Y-5.6197
X8.3816Y-6.0197
X7.6262Y-4.6373
X7.6262Y-5.0373
X6.1Y-5.1194
X6.1Y-5.5194
X10.4112Y-5.6497
X10.4112Y-5.7482
X12.0809Y-4.3997
X12.0809Y-4.7997
X6.2531Y-4.5498
X6.3516Y-4.5498
X13.8825Y-3.4275
X13.8825Y-3.8275
X6.5616Y-3.6798
X6.5616Y-3.9798
X6.6616Y-3.6798
X6.6616Y-3.9798
X6.7616Y-3.6798
X6.7616Y-3.9798
X6.8616Y-3.6798
X6.8616Y-3.9798
X9.3784Y-5.0348
X9.3784Y-5.2317
X3.4566Y-3.5575
X3.555Y-3.5575
X7.5137Y-4.8873
X7.5137Y-5.2873
X5.33Y-4.1544
X5.33Y-4.5545
X13.7075Y-4.3525
X13.7075Y-4.6525
X11.6634Y-5.0347
X11.6634Y-5.2316
X9.3784Y-5.3305
X9.3784Y-5.5273
X4.7975Y-5.3301
X4.7975Y-5.527
X10.3337Y-4.1097
X10.3337Y-4.5097
X11.8934Y-3.6797
X11.8934Y-3.9797
X11.9934Y-3.6797
X11.9934Y-3.9797
X12.0934Y-3.6797
X12.0934Y-3.9797
X12.1934Y-3.6797
X12.1934Y-3.9797
X10.1437Y-5.0347
X10.1437Y-5.2316
X13.265Y-3.525
X13.665Y-3.525
X4.955Y-3.1544
X5.355Y-3.1544
X7.4087Y-4.2073
X7.4087Y-4.5073
X7.7731Y-4.5497
X7.8716Y-4.5497
X3.3331Y-3.2925
X3.53Y-3.2925
X3.575Y-2.8675
X3.575Y-2.9659
X10.4487Y-4.8872
X10.4487Y-5.2872
X5.6825Y-5.402
X5.6825Y-5.5019
X5.6825Y-5.6019
X5.6825Y-5.702
X5.6825Y-5.8019
X5.6825Y-5.902
X5.6825Y-6.0019
X5.9825Y-5.402
X5.9825Y-5.5019
X5.9825Y-5.6019
X5.9825Y-5.702
X5.9825Y-5.8019
X5.9825Y-5.902
X5.9825Y-6.0019
X8.6162Y-5.0348
X8.6162Y-5.2316
X5.215Y-4.3994
X5.215Y-4.7995
X11.9949Y-3.8472
X12.0934Y-3.8472
X12.105Y-2.8575
X12.505Y-2.8575
X4.285Y-4.4891
X4.285Y-4.5875
X3.815Y-2.8725
X3.815Y-3.2725
X11.4384Y-5.6198
X11.4384Y-6.0198
X8.8062Y-4.1098
X8.8062Y-4.5098
X11.1384Y-3.6798
X11.1384Y-3.9798
X11.2384Y-3.6798
X11.2384Y-3.9798
X11.3384Y-3.6798
X11.3384Y-3.9798
X11.4384Y-3.6798
X11.4384Y-3.9798
X8.1191Y-5.6497
X8.1191Y-5.7482
X4.075Y-2.9275
X4.075Y-3.0259
X11.9309Y-5.6497
X11.9309Y-5.7482
X8.0091Y-3.1547
X8.4091Y-3.1547
X6.5191Y-4.7098
X6.6175Y-4.7098
X3.88Y-5.3775
X3.88Y-5.7775
X3.69Y-2.8725
X3.69Y-3.2725
X10.5612Y-4.3997
X10.5612Y-4.7997
X9.4184Y-3.3848
X9.4184Y-3.7848
X6.8616Y-5.1198
X6.8616Y-5.5198
X8.0816Y-3.6797
X8.0816Y-3.9797
X8.1816Y-3.6797
X8.1816Y-3.9797
X8.2816Y-3.6797
X8.2816Y-3.9797
X8.3816Y-3.6797
X8.3816Y-3.9797
X10.8299Y-4.5498
X10.9284Y-4.5498
X12.1959Y-4.6372
X12.1959Y-5.0372
X5.8375Y-5.6494
X5.8375Y-5.7479
X13.74Y-3.2741
X13.74Y-3.3725
X8.2716Y-4.8872
X8.2716Y-5.2872
X12.505Y-2.96
X12.505Y-3.36
X3.315Y-3.5625
X3.315Y-3.9625
X10.6762Y-4.6372
X10.6762Y-5.0372
X9.6834Y-4.8873
X9.6834Y-5.2873
X6.3716Y-3.3848
X6.3716Y-3.7848
X8.6162Y-5.3304
X8.6162Y-5.5273
X11.6709Y-5.6222
X11.6709Y-6.0222
X6.3316Y-5.3304
X6.3316Y-5.5273
X13.885Y-4.3425
X13.885Y-4.5394
X6.8616Y-5.6198
X6.8616Y-6.0198
X8.8037Y-4.8873
X8.8037Y-5.2873
X5.4916Y-4.5495
X5.59Y-4.5495
X11.2134Y-4.8873
X11.2134Y-5.2873
X9.9109Y-4.6373
X9.9109Y-5.0373
X7.1337Y-3.3848
X7.1337Y-3.7848
X8.1831Y-3.8472
X8.2816Y-3.8472
X12.1934Y-5.6197
X12.1934Y-6.0197
X5.57Y-5.0344
X5.57Y-5.2313
X5.61Y-3.3844
X5.61Y-3.7845
X11.8509Y-4.7097
X11.9493Y-4.7097
X9.0362Y-4.8873
X9.0362Y-5.2873
X13.0225Y-5.24
X13.0225Y-5.54
X9.9084Y-5.6198
X9.9084Y-6.0198
X7.2512Y-3.1548
X7.6512Y-3.1548
X6.8641Y-4.1548
X6.8641Y-4.5548
X8.8837Y-5.6498
X8.8837Y-5.7482
X11.8534Y-4.1097
X11.8534Y-4.5097
X4.985Y-4.7094
X5.0834Y-4.7094
X11.0209Y-5.4023
X11.0209Y-5.5023
X11.0209Y-5.6023
X11.0209Y-5.7023
X11.0209Y-5.8023
X11.0209Y-5.9023
X11.0209Y-6.0023
X11.3209Y-5.4023
X11.3209Y-5.5023
X11.3209Y-5.6023
X11.3209Y-5.7023
X11.3209Y-5.8023
X11.3209Y-5.9023
X11.3209Y-6.0023
X8.0416Y-4.1097
X8.0416Y-4.5097
X3.4466Y-4.0425
X3.545Y-4.0425
X9.1462Y-5.1198
X9.1462Y-5.5198
X8.0391Y-4.8872
X8.0391Y-5.2872
X4.41Y-5.4475
X4.41Y-5.5459
X11.0959Y-4.7098
X11.1943Y-4.7098
X11.7034Y-3.3847
X11.7034Y-3.7847
X3.685Y-3.6775
X3.685Y-3.7775
X3.685Y-3.8775
X3.685Y-3.9775
X3.985Y-3.6775
X3.985Y-3.7775
X3.985Y-3.8775
X3.985Y-3.9775
X7.9641Y-5.4022
X7.9641Y-5.5022
X7.9641Y-5.6022
X7.9641Y-5.7022
X7.9641Y-5.8022
X7.9641Y-5.9022
X7.9641Y-6.0022
X8.2641Y-5.4022
X8.2641Y-5.5022
X8.2641Y-5.6022
X8.2641Y-5.7022
X8.2641Y-5.8022
X8.2641Y-5.9022
X8.2641Y-6.0022
X9.7099Y-3.8473
X9.8084Y-3.8473
X8.3841Y-4.1547
X8.3841Y-4.5547
X7.2812Y-4.8873
X7.2812Y-5.2873
X6.1Y-5.6194
X6.1Y-6.0194
X8.9312Y-4.2073
X8.9312Y-4.5073
X10.1437Y-5.3304
X10.1437Y-5.5272
X12.0834Y-4.8872
X12.0834Y-5.2872
X12.9175Y-5.24
X12.9175Y-5.54
X4.285Y-4.3025
X4.285Y-4.4009
X8.8462Y-3.6798
X8.8462Y-3.9798
X8.9462Y-3.6798
X8.9462Y-3.9798
X9.0462Y-3.6798
X9.0462Y-3.9798
X9.1462Y-3.6798
X9.1462Y-3.9798
X9.5659Y-4.7098
X9.6643Y-4.7098
X4.005Y-4.8875
X4.005Y-5.2875
X13.5825Y-3.925
X13.5825Y-4.225
X13.6825Y-3.925
X13.6825Y-4.225
X13.7825Y-3.925
X13.7825Y-4.225
X13.8825Y-3.925
X13.8825Y-4.225
X7.2812Y-4.7098
X7.3796Y-4.7098
X5.1291Y-3.847
X5.2275Y-3.847
X13.5256Y-5.15
X13.7225Y-5.15
X11.3259Y-4.3998
X11.3259Y-4.7998
X7.3237Y-3.6798
X7.3237Y-3.9798
X7.4237Y-3.6798
X7.4237Y-3.9798
X7.5237Y-3.6798
X7.5237Y-3.9798
X7.6237Y-3.6798
X7.6237Y-3.9798
X7.8516Y-5.3304
X7.8516Y-5.5272
X4.9875Y-4.1094
X4.9875Y-4.5095
X10.9084Y-5.3304
X10.9084Y-5.5273
X5.7575Y-4.7094
X5.8559Y-4.7094
X4.7975Y-5.0344
X4.7975Y-5.2313
X10.5637Y-4.8872
X10.5637Y-5.2872
X10.3737Y-3.6797
X10.3737Y-3.9797
X10.4737Y-3.6797
X10.4737Y-3.9797
X10.5737Y-3.6797
X10.5737Y-3.9797
X10.6737Y-3.6797
X10.6737Y-3.9797
X11.2399Y-3.8473
X11.3384Y-3.8473
X13.8825Y-4.655
X13.8825Y-5.055
X6.7516Y-4.8873
X6.7516Y-5.2873
X3.725Y-4.2275
X4.125Y-4.2275
X5.1025Y-4.8869
X5.1025Y-5.287
X10.3012Y-3.1547
X10.7012Y-3.1547
X9.9084Y-5.1198
X9.9084Y-5.5198
X10.2562Y-5.4022
X10.2562Y-5.5022
X10.2562Y-5.6022
X10.2562Y-5.7022
X10.2562Y-5.8022
X10.2562Y-5.9022
X10.2562Y-6.0022
X10.5562Y-5.4022
X10.5562Y-5.5022
X10.5562Y-5.6022
X10.5562Y-5.7022
X10.5562Y-5.8022
X10.5562Y-5.9022
X10.5562Y-6.0022
X10.9084Y-5.0348
X10.9084Y-5.2316
X5.065Y-5.6494
X5.065Y-5.7479
X8.2691Y-4.3997
X8.2691Y-4.7997
X12.8831Y-3.4225
X13.08Y-3.4225
X4.805Y-5.622
X4.805Y-6.0219
X10.1512Y-5.6222
X10.1512Y-6.0222
X9.7959Y-4.3998
X9.7959Y-4.7998
X7.2837Y-4.1098
X7.2837Y-4.5098
X5.875Y-4.8869
X5.875Y-5.287
X8.5378Y-4.5498
X8.6362Y-4.5498
X11.8509Y-4.8872
X11.8509Y-5.2872
X6.6631Y-3.8473
X6.7616Y-3.8473
X13.6375Y-5.6741
X13.6375Y-5.7725
X6.1025Y-4.1544
X6.1025Y-4.5545
X11.2234Y-4.2073
X11.2234Y-4.5073
X9.0337Y-4.3998
X9.0337Y-4.7998
X4.395Y-3.2925
X4.395Y-3.6925
X4.085Y-3.6725
X4.085Y-3.9725
X5.2175Y-4.8869
X5.2175Y-5.287
X11.4409Y-4.1548
X11.4409Y-4.5548
X9.5359Y-3.1548
X9.9359Y-3.1548
X6.3391Y-5.6223
X6.3391Y-6.0223
X5.7575Y-4.8869
X5.7575Y-5.287
X10.0653Y-4.5497
X10.1637Y-4.5497
X11.0659Y-3.1548
X11.4659Y-3.1548
X3.94Y-5.9091
X3.94Y-6.0075
X5.5775Y-5.622
X5.5775Y-6.0219
X8.1666Y-4.2072
X8.1666Y-4.5072
X9.1487Y-4.6373
X9.1487Y-5.0373
X5.57Y-5.3301
X5.57Y-5.527
X4.005Y-5.3775
X4.005Y-5.7775
X11.4409Y-4.6373
X11.4409Y-5.0373
X9.5659Y-4.8873
X9.5659Y-5.2873
X7.6237Y-5.1198
X7.6237Y-5.5198
X7.0153Y-4.5498
X7.1137Y-4.5498
X11.8209Y-3.1547
X12.2209Y-3.1547
X4.405Y-5.9425
X4.405Y-6.0409
X5.99Y-4.8869
X5.99Y-5.287
X7.8916Y-3.3847
X7.8916Y-3.7847
X8.7737Y-3.1548
X9.1737Y-3.1548
X7.6237Y-5.6198
X7.6237Y-6.0198
X5.9875Y-4.3994
X5.9875Y-4.7995
X7.4253Y-3.8473
X7.5237Y-3.8473
X11.0984Y-4.1098
X11.0984Y-4.5098
X7.2062Y-5.4023
X7.2062Y-5.5023
X7.2062Y-5.6023
X7.2062Y-5.7023
X7.2062Y-5.8023
X7.2062Y-5.9023
X7.2062Y-6.0023
X7.5062Y-5.4023
X7.5062Y-5.5023
X7.5062Y-5.6023
X7.5062Y-5.7023
X7.5062Y-5.8023
X7.5062Y-5.9023
X7.5062Y-6.0023
X10.4587Y-4.2072
X10.4587Y-4.5072
X8.1566Y-4.8872
X8.1566Y-5.2872
X9.3859Y-5.6223
X9.3859Y-6.0223
X7.5112Y-4.3998
X7.5112Y-4.7998
X6.6366Y-4.8873
X6.6366Y-5.2873
X8.9478Y-3.8473
X9.0462Y-3.8473
X5.0275Y-3.6795
X5.0275Y-3.9794
X5.1275Y-3.6795
X5.1275Y-3.9794
X5.2275Y-3.6795
X5.2275Y-3.9794
X5.3275Y-3.6795
X5.3275Y-3.9794
X3.92Y-2.8925
X3.92Y-2.9925
X3.92Y-3.0925
X3.92Y-3.1925
X3.92Y-3.2925
X3.92Y-3.3925
X3.92Y-3.4925
X4.22Y-2.8925
X4.22Y-2.9925
X4.22Y-3.0925
X4.22Y-3.1925
X4.22Y-3.2925
X4.22Y-3.3925
X4.22Y-3.4925
X4.985Y-4.8869
X4.985Y-5.287
X9.4909Y-5.4023
X9.4909Y-5.5023
X9.4909Y-5.6023
X9.4909Y-5.7023
X9.4909Y-5.8023
X9.4909Y-5.9023
X9.4909Y-6.0023
X9.7909Y-5.4023
X9.7909Y-5.5023
X9.7909Y-5.6023
X9.7909Y-5.7023
X9.7909Y-5.8023
X9.7909Y-5.9023
X9.7909Y-6.0023
X6.6466Y-4.2073
X6.6466Y-4.5073
X9.2999Y-4.5498
X9.3984Y-4.5498
X8.3841Y-4.6372
X8.3841Y-5.0372
X3.88Y-4.8875
X3.88Y-5.2875
T4
X10.1887Y-3.0297
X10.1887Y-3.1297
X10.1887Y-3.2297
X5.8975Y-3.012
X5.9975Y-3.012
X6.0975Y-3.012
X4.8425Y-3.0294
X4.8425Y-3.1294
X4.8425Y-3.2294
X4.395Y-2.9175
X4.395Y-3.0175
X4.395Y-3.1175
X9.4234Y-3.0298
X9.4234Y-3.1298
X9.4234Y-3.2298
X11.2359Y-3.0123
X11.3359Y-3.0123
X11.4359Y-3.0123
X8.9437Y-3.0123
X9.0437Y-3.0123
X9.1437Y-3.0123
X10.4712Y-3.0122
X10.5712Y-3.0122
X10.6712Y-3.0122
X3.74Y-5.8875
X3.74Y-5.9875
X8.1791Y-3.0122
X8.2791Y-3.0122
X8.3791Y-3.0122
X4.135Y-4.9175
X4.135Y-5.0175
X8.6612Y-3.0298
X8.6612Y-3.1298
X8.6612Y-3.2298
X11.9909Y-3.0122
X12.0909Y-3.0122
X12.1909Y-3.0122
X7.8966Y-3.0297
X7.8966Y-3.1297
X7.8966Y-3.2297
X6.3766Y-3.0298
X6.3766Y-3.1298
X6.3766Y-3.2298
X10.9534Y-3.0298
X10.9534Y-3.1298
X10.9534Y-3.2298
X6.6591Y-3.0123
X6.7591Y-3.0123
X6.8591Y-3.0123
X11.7084Y-3.0297
X11.7084Y-3.1297
X11.7084Y-3.2297
X7.4212Y-3.0123
X7.5212Y-3.0123
X7.6212Y-3.0123
X7.1387Y-3.0298
X7.1387Y-3.1298
X7.1387Y-3.2298
X5.615Y-3.0294
X5.615Y-3.1294
X5.615Y-3.2294
X9.7059Y-3.0123
X9.8059Y-3.0123
X9.9059Y-3.0123
X12.7725Y-5.39
X12.7725Y-5.49
X3.6Y-5.8875
X3.6Y-5.9875
X5.125Y-3.012
X5.225Y-3.012
X5.325Y-3.012
T5
X13.5425Y-4.43
X13.5425Y-4.53
X13.5425Y-4.63
X13.0575Y-3.925
X13.0575Y-4.2557
X13.4525Y-5.7375
X13.4525Y-5.8375
X13.4525Y-5.9375
T6
X12.6775Y-3.7425
X13.4775Y-3.7425
T7
X8.9109Y-3.4273
X9.0487Y-3.4273
X3.31Y-4.3275
X3.31Y-4.5244
X3.31Y-4.7212
X3.5069Y-4.3275
X3.5069Y-4.5244
X3.5069Y-4.7212
X9.6731Y-3.4273
X9.8109Y-3.4273
X7.3884Y-3.4273
X7.5262Y-3.4273
X5.8647Y-3.4269
X6.0025Y-3.4269
X6.6263Y-3.4273
X6.7641Y-3.4273
X10.4384Y-3.4272
X10.5762Y-3.4272
X5.0922Y-3.4269
X5.23Y-3.4269
X8.1463Y-3.4272
X8.2841Y-3.4272
X11.9581Y-3.4272
X12.0959Y-3.4272
X11.2031Y-3.4273
X11.3409Y-3.4273
T8
X13.24Y-3.2444
X13.425Y-3.1263
X13.425Y-3.3625
T9
X12.5442Y-6.7285
X12.5442Y-6.76
X12.5442Y-6.7915
X12.6308Y-6.7285
X12.6308Y-6.76
X12.6308Y-6.7915
X9.7935Y-6.1442
X9.7935Y-6.2308
X9.825Y-6.1442
X9.825Y-6.2308
X9.8565Y-6.1442
X9.8565Y-6.2308
X5.8385Y-6.1442
X5.8385Y-6.2308
X5.87Y-6.1442
X5.87Y-6.2308
X5.9015Y-6.1442
X5.9015Y-6.2308
X13.176Y-6.1442
X13.176Y-6.2308
X13.2075Y-6.1442
X13.2075Y-6.2308
X13.239Y-6.1442
X13.239Y-6.2308
X11.3635Y-6.1442
X11.3635Y-6.2308
X11.395Y-6.1442
X11.395Y-6.2308
X11.4265Y-6.1442
X11.4265Y-6.2308
X3.9835Y-6.1442
X3.9835Y-6.2308
X4.015Y-6.1442
X4.015Y-6.2308
X4.0465Y-6.1442
X4.0465Y-6.2308
X7.736Y-6.1442
X7.736Y-6.2308
X7.7675Y-6.1442
X7.7675Y-6.2308
X7.799Y-6.1442
X7.799Y-6.2308
X4.5367Y-6.7285
X4.5367Y-6.76
X4.5367Y-6.7915
X4.6233Y-6.7285
X4.6233Y-6.76
X4.6233Y-6.7915
T10
X8.5825Y-4.8355
X4.3811Y-6.3869
X13.5475Y-7.1456
X4.777Y-4.0744
X3.62Y-7.1456
X3.375Y-5.9575
X8.5824Y-4.0744
X12.388Y-4.8355
X3.62Y-6.3869
X12.388Y-4.0744
X8.5824Y-6.3869
X4.777Y-6.3869
X12.7864Y-7.1456
X12.388Y-7.148
X12.8866Y-4.53
X13.84Y-5.9575
X4.3811Y-7.1456
X13.84Y-2.9575
X13.5475Y-6.3869
X12.7966Y-5.8375
X8.5824Y-7.148
X4.777Y-7.148
X4.777Y-4.8355
X12.7864Y-6.3869
X12.388Y-6.3869
X3.375Y-2.9575
T11
X5.9186Y-6.7675
X7.4408Y-6.7675
X6.6797Y-6.7675
X8.2019Y-6.7675
X8.9631Y-6.7675
X10.4853Y-6.7675
X12.0075Y-6.7675
X9.7242Y-6.7675
X5.1575Y-6.7675
X13.1669Y-6.7675
X11.2464Y-6.7675
X4.0005Y-6.7675
T4
G00X3.285Y-5.5822
M15
G01X3.285Y-5.5428
M16
G05
G00X3.3795Y-5.5034
M15
G01X3.3795Y-5.4641
M16
G05
G00X3.596Y-5.5034
M15
G01X3.596Y-5.4641
M16
G05
G00X3.285Y-5.1572
M15
G01X3.285Y-5.1178
M16
G05
G00X3.3795Y-5.0784
M15
G01X3.3795Y-5.0391
M16
G05
G00X3.596Y-5.0784
M15
G01X3.596Y-5.0391
M16
G05
T0
M30
