G04 #@! TF.GenerationSoftware,KiCad,Pcbnew,(5.1.0)-1*
G04 #@! TF.CreationDate,2020-06-01T21:20:53-04:00*
G04 #@! TF.ProjectId,NixieAnalyzer,4e697869-6541-46e6-916c-797a65722e6b,rev?*
G04 #@! TF.SameCoordinates,Original*
G04 #@! TF.FileFunction,Legend,Bot*
G04 #@! TF.FilePolarity,Positive*
%FSLAX46Y46*%
G04 Gerber Fmt 4.6, Leading zero omitted, Abs format (unit mm)*
G04 Created by KiCad (PCBNEW (5.1.0)-1) date 2020-06-01 21:20:53*
%MOMM*%
%LPD*%
G04 APERTURE LIST*
%ADD10C,0.120000*%
%ADD11C,0.150000*%
G04 APERTURE END LIST*
D10*
X318452500Y-174053500D02*
G75*
G02X320992500Y-174053500I1270000J0D01*
G01*
X320992500Y-169354500D02*
G75*
G02X318452500Y-169354500I-1270000J0D01*
G01*
X337820000Y-158432500D02*
G75*
G02X337820000Y-155892500I0J1270000D01*
G01*
X333121000Y-155892500D02*
G75*
G02X333121000Y-158432500I0J-1270000D01*
G01*
X291782500Y-158432500D02*
G75*
G02X291782500Y-155892500I0J1270000D01*
G01*
X287083500Y-155892500D02*
G75*
G02X287083500Y-158432500I0J-1270000D01*
G01*
X247205500Y-155892500D02*
G75*
G02X247205500Y-158432500I0J-1270000D01*
G01*
X251904500Y-158432500D02*
G75*
G02X251904500Y-155892500I0J1270000D01*
G01*
X115062000Y-174034000D02*
G75*
G02X117602000Y-174034000I1270000J44000D01*
G01*
X117602000Y-169354500D02*
G75*
G02X115062000Y-169354500I-1270000J0D01*
G01*
X99651000Y-155892500D02*
G75*
G02X99651000Y-158432500I0J-1270000D01*
G01*
X104330500Y-158432500D02*
G75*
G02X104330500Y-155892500I0J1270000D01*
G01*
X151447500Y-158432500D02*
G75*
G02X151447500Y-155892500I0J1270000D01*
G01*
X146748500Y-155892500D02*
G75*
G02X146748500Y-158432500I0J-1270000D01*
G01*
X199644000Y-158432500D02*
G75*
G02X199644000Y-155892500I0J1270000D01*
G01*
X194964500Y-155892500D02*
G75*
G02X194964500Y-158432500I0J-1270000D01*
G01*
X81470500Y-72263000D02*
G75*
G02X82994500Y-70739000I1524000J0D01*
G01*
X354076000Y-70739000D02*
G75*
G02X355600000Y-72263000I0J-1524000D01*
G01*
X355600000Y-154368500D02*
G75*
G02X354076000Y-155892500I-1524000J0D01*
G01*
X82994500Y-155892500D02*
G75*
G02X81470500Y-154368500I0J1524000D01*
G01*
X337820000Y-158432500D02*
X346456000Y-158432500D01*
X333121000Y-158432500D02*
X322389500Y-158432500D01*
X331343000Y-155892500D02*
X333121000Y-155892500D01*
X320992500Y-169354500D02*
X320992500Y-161905500D01*
X320992500Y-183959500D02*
X320992500Y-174053500D01*
X318452500Y-174053500D02*
X318452500Y-184023000D01*
X318452500Y-159829500D02*
X318452500Y-169354500D01*
X291782500Y-158432500D02*
X317055500Y-158432500D01*
X251904500Y-158432500D02*
X287083500Y-158432500D01*
X199644000Y-158432500D02*
X247205500Y-158432500D01*
X151447500Y-158432500D02*
X194964500Y-158432500D01*
X118999000Y-158432500D02*
X146748500Y-158432500D01*
X117602000Y-169354500D02*
X117602000Y-159829500D01*
X117602000Y-184023000D02*
X117602000Y-174034000D01*
X115062000Y-174034000D02*
X115062000Y-183959500D01*
X115062000Y-159829500D02*
X115062000Y-169354500D01*
X104330500Y-158432500D02*
X113665000Y-158432500D01*
X99651000Y-158432500D02*
X89598500Y-158432500D01*
X337820000Y-155892500D02*
X354076000Y-155892500D01*
X291782500Y-155892500D02*
X331343000Y-155892500D01*
X251904500Y-155892500D02*
X287083500Y-155892500D01*
X199644000Y-155892500D02*
X247205500Y-155892500D01*
X151447500Y-155892500D02*
X194964500Y-155892500D01*
X104330500Y-155892500D02*
X146748500Y-155892500D01*
X82994500Y-155892500D02*
X99651000Y-155892500D01*
X81470500Y-72263000D02*
X81470500Y-154368500D01*
X354076000Y-70739000D02*
X82994500Y-70739000D01*
X355600000Y-154368500D02*
X355600000Y-72263000D01*
X322389500Y-185356500D02*
X346456000Y-185356500D01*
X322389500Y-185356500D02*
G75*
G02X320992500Y-183959500I0J1397000D01*
G01*
X347853000Y-183959500D02*
G75*
G02X346456000Y-185356500I-1397000J0D01*
G01*
X346456000Y-158432500D02*
G75*
G02X347853000Y-159829500I0J-1397000D01*
G01*
X347853000Y-159829500D02*
X347853000Y-183959500D01*
X320992500Y-161905500D02*
X320992500Y-159829500D01*
X320992500Y-159829500D02*
G75*
G02X322389500Y-158432500I1397000J0D01*
G01*
X88201500Y-159829500D02*
G75*
G02X89598500Y-158432500I1397000J0D01*
G01*
X89598500Y-185356500D02*
G75*
G02X88201500Y-183959500I0J1397000D01*
G01*
X115062000Y-183959500D02*
G75*
G02X113665000Y-185356500I-1397000J0D01*
G01*
X113665000Y-158432500D02*
G75*
G02X115062000Y-159829500I0J-1397000D01*
G01*
X88201500Y-161925000D02*
X88201500Y-159829500D01*
X89598500Y-185356500D02*
X113665000Y-185356500D01*
X88201500Y-161925000D02*
X88201500Y-183959500D01*
X317055500Y-158432500D02*
G75*
G02X318452500Y-159829500I0J-1397000D01*
G01*
X318452500Y-184023000D02*
G75*
G02X317055500Y-185420000I-1397000J0D01*
G01*
X118999000Y-185420000D02*
G75*
G02X117602000Y-184023000I0J1397000D01*
G01*
X117602000Y-159829500D02*
G75*
G02X118999000Y-158432500I1397000J0D01*
G01*
X118999000Y-185420000D02*
X123444000Y-185420000D01*
X123444000Y-185420000D02*
X317055500Y-185420000D01*
X303801500Y-99089530D02*
X308041500Y-99089530D01*
X303801500Y-96349530D02*
X308041500Y-96349530D01*
X303801500Y-99089530D02*
X303801500Y-98384530D01*
X303801500Y-97054530D02*
X303801500Y-96349530D01*
X308041500Y-99089530D02*
X308041500Y-98384530D01*
X308041500Y-97054530D02*
X308041500Y-96349530D01*
X301674000Y-142633030D02*
X301674000Y-146873030D01*
X304414000Y-142633030D02*
X304414000Y-146873030D01*
X301674000Y-142633030D02*
X302379000Y-142633030D01*
X303709000Y-142633030D02*
X304414000Y-142633030D01*
X301674000Y-146873030D02*
X302379000Y-146873030D01*
X303709000Y-146873030D02*
X304414000Y-146873030D01*
X284624500Y-99090530D02*
X288864500Y-99090530D01*
X284624500Y-96350530D02*
X288864500Y-96350530D01*
X284624500Y-99090530D02*
X284624500Y-98385530D01*
X284624500Y-97055530D02*
X284624500Y-96350530D01*
X288864500Y-99090530D02*
X288864500Y-98385530D01*
X288864500Y-97055530D02*
X288864500Y-96350530D01*
X282497000Y-142634030D02*
X282497000Y-146874030D01*
X285237000Y-142634030D02*
X285237000Y-146874030D01*
X282497000Y-142634030D02*
X283202000Y-142634030D01*
X284532000Y-142634030D02*
X285237000Y-142634030D01*
X282497000Y-146874030D02*
X283202000Y-146874030D01*
X284532000Y-146874030D02*
X285237000Y-146874030D01*
X265202500Y-99089530D02*
X269442500Y-99089530D01*
X265202500Y-96349530D02*
X269442500Y-96349530D01*
X265202500Y-99089530D02*
X265202500Y-98384530D01*
X265202500Y-97054530D02*
X265202500Y-96349530D01*
X269442500Y-99089530D02*
X269442500Y-98384530D01*
X269442500Y-97054530D02*
X269442500Y-96349530D01*
X263075000Y-142633030D02*
X263075000Y-146873030D01*
X265815000Y-142633030D02*
X265815000Y-146873030D01*
X263075000Y-142633030D02*
X263780000Y-142633030D01*
X265110000Y-142633030D02*
X265815000Y-142633030D01*
X263075000Y-146873030D02*
X263780000Y-146873030D01*
X265110000Y-146873030D02*
X265815000Y-146873030D01*
X245762500Y-99091530D02*
X250002500Y-99091530D01*
X245762500Y-96351530D02*
X250002500Y-96351530D01*
X245762500Y-99091530D02*
X245762500Y-98386530D01*
X245762500Y-97056530D02*
X245762500Y-96351530D01*
X250002500Y-99091530D02*
X250002500Y-98386530D01*
X250002500Y-97056530D02*
X250002500Y-96351530D01*
X243635000Y-142635030D02*
X243635000Y-146875030D01*
X246375000Y-142635030D02*
X246375000Y-146875030D01*
X243635000Y-142635030D02*
X244340000Y-142635030D01*
X245670000Y-142635030D02*
X246375000Y-142635030D01*
X243635000Y-146875030D02*
X244340000Y-146875030D01*
X245670000Y-146875030D02*
X246375000Y-146875030D01*
X226404000Y-99090530D02*
X230644000Y-99090530D01*
X226404000Y-96350530D02*
X230644000Y-96350530D01*
X226404000Y-99090530D02*
X226404000Y-98385530D01*
X226404000Y-97055530D02*
X226404000Y-96350530D01*
X230644000Y-99090530D02*
X230644000Y-98385530D01*
X230644000Y-97055530D02*
X230644000Y-96350530D01*
X224276500Y-142634030D02*
X224276500Y-146874030D01*
X227016500Y-142634030D02*
X227016500Y-146874030D01*
X224276500Y-142634030D02*
X224981500Y-142634030D01*
X226311500Y-142634030D02*
X227016500Y-142634030D01*
X224276500Y-146874030D02*
X224981500Y-146874030D01*
X226311500Y-146874030D02*
X227016500Y-146874030D01*
X206982000Y-99089530D02*
X211222000Y-99089530D01*
X206982000Y-96349530D02*
X211222000Y-96349530D01*
X206982000Y-99089530D02*
X206982000Y-98384530D01*
X206982000Y-97054530D02*
X206982000Y-96349530D01*
X211222000Y-99089530D02*
X211222000Y-98384530D01*
X211222000Y-97054530D02*
X211222000Y-96349530D01*
X204854500Y-142633030D02*
X204854500Y-146873030D01*
X207594500Y-142633030D02*
X207594500Y-146873030D01*
X204854500Y-142633030D02*
X205559500Y-142633030D01*
X206889500Y-142633030D02*
X207594500Y-142633030D01*
X204854500Y-146873030D02*
X205559500Y-146873030D01*
X206889500Y-146873030D02*
X207594500Y-146873030D01*
X187732500Y-99091530D02*
X191972500Y-99091530D01*
X187732500Y-96351530D02*
X191972500Y-96351530D01*
X187732500Y-99091530D02*
X187732500Y-98386530D01*
X187732500Y-97056530D02*
X187732500Y-96351530D01*
X191972500Y-99091530D02*
X191972500Y-98386530D01*
X191972500Y-97056530D02*
X191972500Y-96351530D01*
X185605000Y-142635030D02*
X185605000Y-146875030D01*
X188345000Y-142635030D02*
X188345000Y-146875030D01*
X185605000Y-142635030D02*
X186310000Y-142635030D01*
X187640000Y-142635030D02*
X188345000Y-142635030D01*
X185605000Y-146875030D02*
X186310000Y-146875030D01*
X187640000Y-146875030D02*
X188345000Y-146875030D01*
X168374000Y-99090530D02*
X172614000Y-99090530D01*
X168374000Y-96350530D02*
X172614000Y-96350530D01*
X168374000Y-99090530D02*
X168374000Y-98385530D01*
X168374000Y-97055530D02*
X168374000Y-96350530D01*
X172614000Y-99090530D02*
X172614000Y-98385530D01*
X172614000Y-97055530D02*
X172614000Y-96350530D01*
X166246500Y-142634030D02*
X166246500Y-146874030D01*
X168986500Y-142634030D02*
X168986500Y-146874030D01*
X166246500Y-142634030D02*
X166951500Y-142634030D01*
X168281500Y-142634030D02*
X168986500Y-142634030D01*
X166246500Y-146874030D02*
X166951500Y-146874030D01*
X168281500Y-146874030D02*
X168986500Y-146874030D01*
X149030000Y-99082530D02*
X153270000Y-99082530D01*
X149030000Y-96342530D02*
X153270000Y-96342530D01*
X149030000Y-99082530D02*
X149030000Y-98377530D01*
X149030000Y-97047530D02*
X149030000Y-96342530D01*
X153270000Y-99082530D02*
X153270000Y-98377530D01*
X153270000Y-97047530D02*
X153270000Y-96342530D01*
X146902500Y-142626030D02*
X146902500Y-146866030D01*
X149642500Y-142626030D02*
X149642500Y-146866030D01*
X146902500Y-142626030D02*
X147607500Y-142626030D01*
X148937500Y-142626030D02*
X149642500Y-142626030D01*
X146902500Y-146866030D02*
X147607500Y-146866030D01*
X148937500Y-146866030D02*
X149642500Y-146866030D01*
X129408500Y-99082530D02*
X133648500Y-99082530D01*
X129408500Y-96342530D02*
X133648500Y-96342530D01*
X129408500Y-99082530D02*
X129408500Y-98377530D01*
X129408500Y-97047530D02*
X129408500Y-96342530D01*
X133648500Y-99082530D02*
X133648500Y-98377530D01*
X133648500Y-97047530D02*
X133648500Y-96342530D01*
X104875000Y-77728500D02*
X104875000Y-73488500D01*
X102135000Y-77728500D02*
X102135000Y-73488500D01*
X104875000Y-77728500D02*
X104170000Y-77728500D01*
X102840000Y-77728500D02*
X102135000Y-77728500D01*
X104875000Y-73488500D02*
X104170000Y-73488500D01*
X102840000Y-73488500D02*
X102135000Y-73488500D01*
X127281000Y-142626030D02*
X127281000Y-146866030D01*
X130021000Y-142626030D02*
X130021000Y-146866030D01*
X127281000Y-142626030D02*
X127986000Y-142626030D01*
X129316000Y-142626030D02*
X130021000Y-142626030D01*
X127281000Y-146866030D02*
X127986000Y-146866030D01*
X129316000Y-146866030D02*
X130021000Y-146866030D01*
D11*
X303274142Y-97140172D02*
X303321761Y-97092553D01*
X303369380Y-96949696D01*
X303369380Y-96854458D01*
X303321761Y-96711601D01*
X303226523Y-96616363D01*
X303131285Y-96568744D01*
X302940809Y-96521125D01*
X302797952Y-96521125D01*
X302607476Y-96568744D01*
X302512238Y-96616363D01*
X302417000Y-96711601D01*
X302369380Y-96854458D01*
X302369380Y-96949696D01*
X302417000Y-97092553D01*
X302464619Y-97140172D01*
X302797952Y-97711601D02*
X302750333Y-97616363D01*
X302702714Y-97568744D01*
X302607476Y-97521125D01*
X302559857Y-97521125D01*
X302464619Y-97568744D01*
X302417000Y-97616363D01*
X302369380Y-97711601D01*
X302369380Y-97902077D01*
X302417000Y-97997315D01*
X302464619Y-98044934D01*
X302559857Y-98092553D01*
X302607476Y-98092553D01*
X302702714Y-98044934D01*
X302750333Y-97997315D01*
X302797952Y-97902077D01*
X302797952Y-97711601D01*
X302845571Y-97616363D01*
X302893190Y-97568744D01*
X302988428Y-97521125D01*
X303178904Y-97521125D01*
X303274142Y-97568744D01*
X303321761Y-97616363D01*
X303369380Y-97711601D01*
X303369380Y-97902077D01*
X303321761Y-97997315D01*
X303274142Y-98044934D01*
X303178904Y-98092553D01*
X302988428Y-98092553D01*
X302893190Y-98044934D01*
X302845571Y-97997315D01*
X302797952Y-97902077D01*
X302369380Y-98711601D02*
X302369380Y-98806839D01*
X302417000Y-98902077D01*
X302464619Y-98949696D01*
X302559857Y-98997315D01*
X302750333Y-99044934D01*
X302988428Y-99044934D01*
X303178904Y-98997315D01*
X303274142Y-98949696D01*
X303321761Y-98902077D01*
X303369380Y-98806839D01*
X303369380Y-98711601D01*
X303321761Y-98616363D01*
X303274142Y-98568744D01*
X303178904Y-98521125D01*
X302988428Y-98473506D01*
X302750333Y-98473506D01*
X302559857Y-98521125D01*
X302464619Y-98568744D01*
X302417000Y-98616363D01*
X302369380Y-98711601D01*
X303750357Y-142145672D02*
X303797976Y-142193291D01*
X303940833Y-142240910D01*
X304036071Y-142240910D01*
X304178928Y-142193291D01*
X304274166Y-142098053D01*
X304321785Y-142002815D01*
X304369404Y-141812339D01*
X304369404Y-141669482D01*
X304321785Y-141479006D01*
X304274166Y-141383768D01*
X304178928Y-141288530D01*
X304036071Y-141240910D01*
X303940833Y-141240910D01*
X303797976Y-141288530D01*
X303750357Y-141336149D01*
X303417023Y-141240910D02*
X302750357Y-141240910D01*
X303178928Y-142240910D01*
X302226547Y-141669482D02*
X302321785Y-141621863D01*
X302369404Y-141574244D01*
X302417023Y-141479006D01*
X302417023Y-141431387D01*
X302369404Y-141336149D01*
X302321785Y-141288530D01*
X302226547Y-141240910D01*
X302036071Y-141240910D01*
X301940833Y-141288530D01*
X301893214Y-141336149D01*
X301845595Y-141431387D01*
X301845595Y-141479006D01*
X301893214Y-141574244D01*
X301940833Y-141621863D01*
X302036071Y-141669482D01*
X302226547Y-141669482D01*
X302321785Y-141717101D01*
X302369404Y-141764720D01*
X302417023Y-141859958D01*
X302417023Y-142050434D01*
X302369404Y-142145672D01*
X302321785Y-142193291D01*
X302226547Y-142240910D01*
X302036071Y-142240910D01*
X301940833Y-142193291D01*
X301893214Y-142145672D01*
X301845595Y-142050434D01*
X301845595Y-141859958D01*
X301893214Y-141764720D01*
X301940833Y-141717101D01*
X302036071Y-141669482D01*
X284097142Y-97141172D02*
X284144761Y-97093553D01*
X284192380Y-96950696D01*
X284192380Y-96855458D01*
X284144761Y-96712601D01*
X284049523Y-96617363D01*
X283954285Y-96569744D01*
X283763809Y-96522125D01*
X283620952Y-96522125D01*
X283430476Y-96569744D01*
X283335238Y-96617363D01*
X283240000Y-96712601D01*
X283192380Y-96855458D01*
X283192380Y-96950696D01*
X283240000Y-97093553D01*
X283287619Y-97141172D01*
X283192380Y-97474506D02*
X283192380Y-98141172D01*
X284192380Y-97712601D01*
X283525714Y-98950696D02*
X284192380Y-98950696D01*
X283144761Y-98712601D02*
X283859047Y-98474506D01*
X283859047Y-99093553D01*
X284573357Y-142146672D02*
X284620976Y-142194291D01*
X284763833Y-142241910D01*
X284859071Y-142241910D01*
X285001928Y-142194291D01*
X285097166Y-142099053D01*
X285144785Y-142003815D01*
X285192404Y-141813339D01*
X285192404Y-141670482D01*
X285144785Y-141480006D01*
X285097166Y-141384768D01*
X285001928Y-141289530D01*
X284859071Y-141241910D01*
X284763833Y-141241910D01*
X284620976Y-141289530D01*
X284573357Y-141337149D01*
X284240023Y-141241910D02*
X283573357Y-141241910D01*
X284001928Y-142241910D01*
X283240023Y-141337149D02*
X283192404Y-141289530D01*
X283097166Y-141241910D01*
X282859071Y-141241910D01*
X282763833Y-141289530D01*
X282716214Y-141337149D01*
X282668595Y-141432387D01*
X282668595Y-141527625D01*
X282716214Y-141670482D01*
X283287642Y-142241910D01*
X282668595Y-142241910D01*
X264675142Y-97140172D02*
X264722761Y-97092553D01*
X264770380Y-96949696D01*
X264770380Y-96854458D01*
X264722761Y-96711601D01*
X264627523Y-96616363D01*
X264532285Y-96568744D01*
X264341809Y-96521125D01*
X264198952Y-96521125D01*
X264008476Y-96568744D01*
X263913238Y-96616363D01*
X263818000Y-96711601D01*
X263770380Y-96854458D01*
X263770380Y-96949696D01*
X263818000Y-97092553D01*
X263865619Y-97140172D01*
X263770380Y-97997315D02*
X263770380Y-97806839D01*
X263818000Y-97711601D01*
X263865619Y-97663982D01*
X264008476Y-97568744D01*
X264198952Y-97521125D01*
X264579904Y-97521125D01*
X264675142Y-97568744D01*
X264722761Y-97616363D01*
X264770380Y-97711601D01*
X264770380Y-97902077D01*
X264722761Y-97997315D01*
X264675142Y-98044934D01*
X264579904Y-98092553D01*
X264341809Y-98092553D01*
X264246571Y-98044934D01*
X264198952Y-97997315D01*
X264151333Y-97902077D01*
X264151333Y-97711601D01*
X264198952Y-97616363D01*
X264246571Y-97568744D01*
X264341809Y-97521125D01*
X264198952Y-98663982D02*
X264151333Y-98568744D01*
X264103714Y-98521125D01*
X264008476Y-98473506D01*
X263960857Y-98473506D01*
X263865619Y-98521125D01*
X263818000Y-98568744D01*
X263770380Y-98663982D01*
X263770380Y-98854458D01*
X263818000Y-98949696D01*
X263865619Y-98997315D01*
X263960857Y-99044934D01*
X264008476Y-99044934D01*
X264103714Y-98997315D01*
X264151333Y-98949696D01*
X264198952Y-98854458D01*
X264198952Y-98663982D01*
X264246571Y-98568744D01*
X264294190Y-98521125D01*
X264389428Y-98473506D01*
X264579904Y-98473506D01*
X264675142Y-98521125D01*
X264722761Y-98568744D01*
X264770380Y-98663982D01*
X264770380Y-98854458D01*
X264722761Y-98949696D01*
X264675142Y-98997315D01*
X264579904Y-99044934D01*
X264389428Y-99044934D01*
X264294190Y-98997315D01*
X264246571Y-98949696D01*
X264198952Y-98854458D01*
X265151357Y-142145672D02*
X265198976Y-142193291D01*
X265341833Y-142240910D01*
X265437071Y-142240910D01*
X265579928Y-142193291D01*
X265675166Y-142098053D01*
X265722785Y-142002815D01*
X265770404Y-141812339D01*
X265770404Y-141669482D01*
X265722785Y-141479006D01*
X265675166Y-141383768D01*
X265579928Y-141288530D01*
X265437071Y-141240910D01*
X265341833Y-141240910D01*
X265198976Y-141288530D01*
X265151357Y-141336149D01*
X264294214Y-141240910D02*
X264484690Y-141240910D01*
X264579928Y-141288530D01*
X264627547Y-141336149D01*
X264722785Y-141479006D01*
X264770404Y-141669482D01*
X264770404Y-142050434D01*
X264722785Y-142145672D01*
X264675166Y-142193291D01*
X264579928Y-142240910D01*
X264389452Y-142240910D01*
X264294214Y-142193291D01*
X264246595Y-142145672D01*
X264198976Y-142050434D01*
X264198976Y-141812339D01*
X264246595Y-141717101D01*
X264294214Y-141669482D01*
X264389452Y-141621863D01*
X264579928Y-141621863D01*
X264675166Y-141669482D01*
X264722785Y-141717101D01*
X264770404Y-141812339D01*
X263341833Y-141240910D02*
X263532309Y-141240910D01*
X263627547Y-141288530D01*
X263675166Y-141336149D01*
X263770404Y-141479006D01*
X263818023Y-141669482D01*
X263818023Y-142050434D01*
X263770404Y-142145672D01*
X263722785Y-142193291D01*
X263627547Y-142240910D01*
X263437071Y-142240910D01*
X263341833Y-142193291D01*
X263294214Y-142145672D01*
X263246595Y-142050434D01*
X263246595Y-141812339D01*
X263294214Y-141717101D01*
X263341833Y-141669482D01*
X263437071Y-141621863D01*
X263627547Y-141621863D01*
X263722785Y-141669482D01*
X263770404Y-141717101D01*
X263818023Y-141812339D01*
X245235142Y-97142172D02*
X245282761Y-97094553D01*
X245330380Y-96951696D01*
X245330380Y-96856458D01*
X245282761Y-96713601D01*
X245187523Y-96618363D01*
X245092285Y-96570744D01*
X244901809Y-96523125D01*
X244758952Y-96523125D01*
X244568476Y-96570744D01*
X244473238Y-96618363D01*
X244378000Y-96713601D01*
X244330380Y-96856458D01*
X244330380Y-96951696D01*
X244378000Y-97094553D01*
X244425619Y-97142172D01*
X244330380Y-97999315D02*
X244330380Y-97808839D01*
X244378000Y-97713601D01*
X244425619Y-97665982D01*
X244568476Y-97570744D01*
X244758952Y-97523125D01*
X245139904Y-97523125D01*
X245235142Y-97570744D01*
X245282761Y-97618363D01*
X245330380Y-97713601D01*
X245330380Y-97904077D01*
X245282761Y-97999315D01*
X245235142Y-98046934D01*
X245139904Y-98094553D01*
X244901809Y-98094553D01*
X244806571Y-98046934D01*
X244758952Y-97999315D01*
X244711333Y-97904077D01*
X244711333Y-97713601D01*
X244758952Y-97618363D01*
X244806571Y-97570744D01*
X244901809Y-97523125D01*
X244425619Y-98475506D02*
X244378000Y-98523125D01*
X244330380Y-98618363D01*
X244330380Y-98856458D01*
X244378000Y-98951696D01*
X244425619Y-98999315D01*
X244520857Y-99046934D01*
X244616095Y-99046934D01*
X244758952Y-98999315D01*
X245330380Y-98427887D01*
X245330380Y-99046934D01*
X245711357Y-142147672D02*
X245758976Y-142195291D01*
X245901833Y-142242910D01*
X245997071Y-142242910D01*
X246139928Y-142195291D01*
X246235166Y-142100053D01*
X246282785Y-142004815D01*
X246330404Y-141814339D01*
X246330404Y-141671482D01*
X246282785Y-141481006D01*
X246235166Y-141385768D01*
X246139928Y-141290530D01*
X245997071Y-141242910D01*
X245901833Y-141242910D01*
X245758976Y-141290530D01*
X245711357Y-141338149D01*
X244854214Y-141242910D02*
X245044690Y-141242910D01*
X245139928Y-141290530D01*
X245187547Y-141338149D01*
X245282785Y-141481006D01*
X245330404Y-141671482D01*
X245330404Y-142052434D01*
X245282785Y-142147672D01*
X245235166Y-142195291D01*
X245139928Y-142242910D01*
X244949452Y-142242910D01*
X244854214Y-142195291D01*
X244806595Y-142147672D01*
X244758976Y-142052434D01*
X244758976Y-141814339D01*
X244806595Y-141719101D01*
X244854214Y-141671482D01*
X244949452Y-141623863D01*
X245139928Y-141623863D01*
X245235166Y-141671482D01*
X245282785Y-141719101D01*
X245330404Y-141814339D01*
X244139928Y-141242910D02*
X244044690Y-141242910D01*
X243949452Y-141290530D01*
X243901833Y-141338149D01*
X243854214Y-141433387D01*
X243806595Y-141623863D01*
X243806595Y-141861958D01*
X243854214Y-142052434D01*
X243901833Y-142147672D01*
X243949452Y-142195291D01*
X244044690Y-142242910D01*
X244139928Y-142242910D01*
X244235166Y-142195291D01*
X244282785Y-142147672D01*
X244330404Y-142052434D01*
X244378023Y-141861958D01*
X244378023Y-141623863D01*
X244330404Y-141433387D01*
X244282785Y-141338149D01*
X244235166Y-141290530D01*
X244139928Y-141242910D01*
X225876642Y-97141172D02*
X225924261Y-97093553D01*
X225971880Y-96950696D01*
X225971880Y-96855458D01*
X225924261Y-96712601D01*
X225829023Y-96617363D01*
X225733785Y-96569744D01*
X225543309Y-96522125D01*
X225400452Y-96522125D01*
X225209976Y-96569744D01*
X225114738Y-96617363D01*
X225019500Y-96712601D01*
X224971880Y-96855458D01*
X224971880Y-96950696D01*
X225019500Y-97093553D01*
X225067119Y-97141172D01*
X224971880Y-98045934D02*
X224971880Y-97569744D01*
X225448071Y-97522125D01*
X225400452Y-97569744D01*
X225352833Y-97664982D01*
X225352833Y-97903077D01*
X225400452Y-97998315D01*
X225448071Y-98045934D01*
X225543309Y-98093553D01*
X225781404Y-98093553D01*
X225876642Y-98045934D01*
X225924261Y-97998315D01*
X225971880Y-97903077D01*
X225971880Y-97664982D01*
X225924261Y-97569744D01*
X225876642Y-97522125D01*
X224971880Y-98950696D02*
X224971880Y-98760220D01*
X225019500Y-98664982D01*
X225067119Y-98617363D01*
X225209976Y-98522125D01*
X225400452Y-98474506D01*
X225781404Y-98474506D01*
X225876642Y-98522125D01*
X225924261Y-98569744D01*
X225971880Y-98664982D01*
X225971880Y-98855458D01*
X225924261Y-98950696D01*
X225876642Y-98998315D01*
X225781404Y-99045934D01*
X225543309Y-99045934D01*
X225448071Y-98998315D01*
X225400452Y-98950696D01*
X225352833Y-98855458D01*
X225352833Y-98664982D01*
X225400452Y-98569744D01*
X225448071Y-98522125D01*
X225543309Y-98474506D01*
X226352857Y-142146672D02*
X226400476Y-142194291D01*
X226543333Y-142241910D01*
X226638571Y-142241910D01*
X226781428Y-142194291D01*
X226876666Y-142099053D01*
X226924285Y-142003815D01*
X226971904Y-141813339D01*
X226971904Y-141670482D01*
X226924285Y-141480006D01*
X226876666Y-141384768D01*
X226781428Y-141289530D01*
X226638571Y-141241910D01*
X226543333Y-141241910D01*
X226400476Y-141289530D01*
X226352857Y-141337149D01*
X225448095Y-141241910D02*
X225924285Y-141241910D01*
X225971904Y-141718101D01*
X225924285Y-141670482D01*
X225829047Y-141622863D01*
X225590952Y-141622863D01*
X225495714Y-141670482D01*
X225448095Y-141718101D01*
X225400476Y-141813339D01*
X225400476Y-142051434D01*
X225448095Y-142146672D01*
X225495714Y-142194291D01*
X225590952Y-142241910D01*
X225829047Y-142241910D01*
X225924285Y-142194291D01*
X225971904Y-142146672D01*
X224543333Y-141575244D02*
X224543333Y-142241910D01*
X224781428Y-141194291D02*
X225019523Y-141908577D01*
X224400476Y-141908577D01*
X206454642Y-97140172D02*
X206502261Y-97092553D01*
X206549880Y-96949696D01*
X206549880Y-96854458D01*
X206502261Y-96711601D01*
X206407023Y-96616363D01*
X206311785Y-96568744D01*
X206121309Y-96521125D01*
X205978452Y-96521125D01*
X205787976Y-96568744D01*
X205692738Y-96616363D01*
X205597500Y-96711601D01*
X205549880Y-96854458D01*
X205549880Y-96949696D01*
X205597500Y-97092553D01*
X205645119Y-97140172D01*
X205549880Y-98044934D02*
X205549880Y-97568744D01*
X206026071Y-97521125D01*
X205978452Y-97568744D01*
X205930833Y-97663982D01*
X205930833Y-97902077D01*
X205978452Y-97997315D01*
X206026071Y-98044934D01*
X206121309Y-98092553D01*
X206359404Y-98092553D01*
X206454642Y-98044934D01*
X206502261Y-97997315D01*
X206549880Y-97902077D01*
X206549880Y-97663982D01*
X206502261Y-97568744D01*
X206454642Y-97521125D01*
X205549880Y-98711601D02*
X205549880Y-98806839D01*
X205597500Y-98902077D01*
X205645119Y-98949696D01*
X205740357Y-98997315D01*
X205930833Y-99044934D01*
X206168928Y-99044934D01*
X206359404Y-98997315D01*
X206454642Y-98949696D01*
X206502261Y-98902077D01*
X206549880Y-98806839D01*
X206549880Y-98711601D01*
X206502261Y-98616363D01*
X206454642Y-98568744D01*
X206359404Y-98521125D01*
X206168928Y-98473506D01*
X205930833Y-98473506D01*
X205740357Y-98521125D01*
X205645119Y-98568744D01*
X205597500Y-98616363D01*
X205549880Y-98711601D01*
X206930857Y-142145672D02*
X206978476Y-142193291D01*
X207121333Y-142240910D01*
X207216571Y-142240910D01*
X207359428Y-142193291D01*
X207454666Y-142098053D01*
X207502285Y-142002815D01*
X207549904Y-141812339D01*
X207549904Y-141669482D01*
X207502285Y-141479006D01*
X207454666Y-141383768D01*
X207359428Y-141288530D01*
X207216571Y-141240910D01*
X207121333Y-141240910D01*
X206978476Y-141288530D01*
X206930857Y-141336149D01*
X206073714Y-141574244D02*
X206073714Y-142240910D01*
X206311809Y-141193291D02*
X206549904Y-141907577D01*
X205930857Y-141907577D01*
X205407047Y-141669482D02*
X205502285Y-141621863D01*
X205549904Y-141574244D01*
X205597523Y-141479006D01*
X205597523Y-141431387D01*
X205549904Y-141336149D01*
X205502285Y-141288530D01*
X205407047Y-141240910D01*
X205216571Y-141240910D01*
X205121333Y-141288530D01*
X205073714Y-141336149D01*
X205026095Y-141431387D01*
X205026095Y-141479006D01*
X205073714Y-141574244D01*
X205121333Y-141621863D01*
X205216571Y-141669482D01*
X205407047Y-141669482D01*
X205502285Y-141717101D01*
X205549904Y-141764720D01*
X205597523Y-141859958D01*
X205597523Y-142050434D01*
X205549904Y-142145672D01*
X205502285Y-142193291D01*
X205407047Y-142240910D01*
X205216571Y-142240910D01*
X205121333Y-142193291D01*
X205073714Y-142145672D01*
X205026095Y-142050434D01*
X205026095Y-141859958D01*
X205073714Y-141764720D01*
X205121333Y-141717101D01*
X205216571Y-141669482D01*
X187205142Y-97142172D02*
X187252761Y-97094553D01*
X187300380Y-96951696D01*
X187300380Y-96856458D01*
X187252761Y-96713601D01*
X187157523Y-96618363D01*
X187062285Y-96570744D01*
X186871809Y-96523125D01*
X186728952Y-96523125D01*
X186538476Y-96570744D01*
X186443238Y-96618363D01*
X186348000Y-96713601D01*
X186300380Y-96856458D01*
X186300380Y-96951696D01*
X186348000Y-97094553D01*
X186395619Y-97142172D01*
X186633714Y-97999315D02*
X187300380Y-97999315D01*
X186252761Y-97761220D02*
X186967047Y-97523125D01*
X186967047Y-98142172D01*
X186633714Y-98951696D02*
X187300380Y-98951696D01*
X186252761Y-98713601D02*
X186967047Y-98475506D01*
X186967047Y-99094553D01*
X187681357Y-142147672D02*
X187728976Y-142195291D01*
X187871833Y-142242910D01*
X187967071Y-142242910D01*
X188109928Y-142195291D01*
X188205166Y-142100053D01*
X188252785Y-142004815D01*
X188300404Y-141814339D01*
X188300404Y-141671482D01*
X188252785Y-141481006D01*
X188205166Y-141385768D01*
X188109928Y-141290530D01*
X187967071Y-141242910D01*
X187871833Y-141242910D01*
X187728976Y-141290530D01*
X187681357Y-141338149D01*
X186824214Y-141576244D02*
X186824214Y-142242910D01*
X187062309Y-141195291D02*
X187300404Y-141909577D01*
X186681357Y-141909577D01*
X186348023Y-141338149D02*
X186300404Y-141290530D01*
X186205166Y-141242910D01*
X185967071Y-141242910D01*
X185871833Y-141290530D01*
X185824214Y-141338149D01*
X185776595Y-141433387D01*
X185776595Y-141528625D01*
X185824214Y-141671482D01*
X186395642Y-142242910D01*
X185776595Y-142242910D01*
X167846642Y-97141172D02*
X167894261Y-97093553D01*
X167941880Y-96950696D01*
X167941880Y-96855458D01*
X167894261Y-96712601D01*
X167799023Y-96617363D01*
X167703785Y-96569744D01*
X167513309Y-96522125D01*
X167370452Y-96522125D01*
X167179976Y-96569744D01*
X167084738Y-96617363D01*
X166989500Y-96712601D01*
X166941880Y-96855458D01*
X166941880Y-96950696D01*
X166989500Y-97093553D01*
X167037119Y-97141172D01*
X166941880Y-97474506D02*
X166941880Y-98093553D01*
X167322833Y-97760220D01*
X167322833Y-97903077D01*
X167370452Y-97998315D01*
X167418071Y-98045934D01*
X167513309Y-98093553D01*
X167751404Y-98093553D01*
X167846642Y-98045934D01*
X167894261Y-97998315D01*
X167941880Y-97903077D01*
X167941880Y-97617363D01*
X167894261Y-97522125D01*
X167846642Y-97474506D01*
X167370452Y-98664982D02*
X167322833Y-98569744D01*
X167275214Y-98522125D01*
X167179976Y-98474506D01*
X167132357Y-98474506D01*
X167037119Y-98522125D01*
X166989500Y-98569744D01*
X166941880Y-98664982D01*
X166941880Y-98855458D01*
X166989500Y-98950696D01*
X167037119Y-98998315D01*
X167132357Y-99045934D01*
X167179976Y-99045934D01*
X167275214Y-98998315D01*
X167322833Y-98950696D01*
X167370452Y-98855458D01*
X167370452Y-98664982D01*
X167418071Y-98569744D01*
X167465690Y-98522125D01*
X167560928Y-98474506D01*
X167751404Y-98474506D01*
X167846642Y-98522125D01*
X167894261Y-98569744D01*
X167941880Y-98664982D01*
X167941880Y-98855458D01*
X167894261Y-98950696D01*
X167846642Y-98998315D01*
X167751404Y-99045934D01*
X167560928Y-99045934D01*
X167465690Y-98998315D01*
X167418071Y-98950696D01*
X167370452Y-98855458D01*
X168322857Y-142146672D02*
X168370476Y-142194291D01*
X168513333Y-142241910D01*
X168608571Y-142241910D01*
X168751428Y-142194291D01*
X168846666Y-142099053D01*
X168894285Y-142003815D01*
X168941904Y-141813339D01*
X168941904Y-141670482D01*
X168894285Y-141480006D01*
X168846666Y-141384768D01*
X168751428Y-141289530D01*
X168608571Y-141241910D01*
X168513333Y-141241910D01*
X168370476Y-141289530D01*
X168322857Y-141337149D01*
X167989523Y-141241910D02*
X167370476Y-141241910D01*
X167703809Y-141622863D01*
X167560952Y-141622863D01*
X167465714Y-141670482D01*
X167418095Y-141718101D01*
X167370476Y-141813339D01*
X167370476Y-142051434D01*
X167418095Y-142146672D01*
X167465714Y-142194291D01*
X167560952Y-142241910D01*
X167846666Y-142241910D01*
X167941904Y-142194291D01*
X167989523Y-142146672D01*
X166513333Y-141241910D02*
X166703809Y-141241910D01*
X166799047Y-141289530D01*
X166846666Y-141337149D01*
X166941904Y-141480006D01*
X166989523Y-141670482D01*
X166989523Y-142051434D01*
X166941904Y-142146672D01*
X166894285Y-142194291D01*
X166799047Y-142241910D01*
X166608571Y-142241910D01*
X166513333Y-142194291D01*
X166465714Y-142146672D01*
X166418095Y-142051434D01*
X166418095Y-141813339D01*
X166465714Y-141718101D01*
X166513333Y-141670482D01*
X166608571Y-141622863D01*
X166799047Y-141622863D01*
X166894285Y-141670482D01*
X166941904Y-141718101D01*
X166989523Y-141813339D01*
X148502642Y-97133172D02*
X148550261Y-97085553D01*
X148597880Y-96942696D01*
X148597880Y-96847458D01*
X148550261Y-96704601D01*
X148455023Y-96609363D01*
X148359785Y-96561744D01*
X148169309Y-96514125D01*
X148026452Y-96514125D01*
X147835976Y-96561744D01*
X147740738Y-96609363D01*
X147645500Y-96704601D01*
X147597880Y-96847458D01*
X147597880Y-96942696D01*
X147645500Y-97085553D01*
X147693119Y-97133172D01*
X147597880Y-97466506D02*
X147597880Y-98085553D01*
X147978833Y-97752220D01*
X147978833Y-97895077D01*
X148026452Y-97990315D01*
X148074071Y-98037934D01*
X148169309Y-98085553D01*
X148407404Y-98085553D01*
X148502642Y-98037934D01*
X148550261Y-97990315D01*
X148597880Y-97895077D01*
X148597880Y-97609363D01*
X148550261Y-97514125D01*
X148502642Y-97466506D01*
X147693119Y-98466506D02*
X147645500Y-98514125D01*
X147597880Y-98609363D01*
X147597880Y-98847458D01*
X147645500Y-98942696D01*
X147693119Y-98990315D01*
X147788357Y-99037934D01*
X147883595Y-99037934D01*
X148026452Y-98990315D01*
X148597880Y-98418887D01*
X148597880Y-99037934D01*
X148978857Y-142138672D02*
X149026476Y-142186291D01*
X149169333Y-142233910D01*
X149264571Y-142233910D01*
X149407428Y-142186291D01*
X149502666Y-142091053D01*
X149550285Y-141995815D01*
X149597904Y-141805339D01*
X149597904Y-141662482D01*
X149550285Y-141472006D01*
X149502666Y-141376768D01*
X149407428Y-141281530D01*
X149264571Y-141233910D01*
X149169333Y-141233910D01*
X149026476Y-141281530D01*
X148978857Y-141329149D01*
X148645523Y-141233910D02*
X148026476Y-141233910D01*
X148359809Y-141614863D01*
X148216952Y-141614863D01*
X148121714Y-141662482D01*
X148074095Y-141710101D01*
X148026476Y-141805339D01*
X148026476Y-142043434D01*
X148074095Y-142138672D01*
X148121714Y-142186291D01*
X148216952Y-142233910D01*
X148502666Y-142233910D01*
X148597904Y-142186291D01*
X148645523Y-142138672D01*
X147407428Y-141233910D02*
X147312190Y-141233910D01*
X147216952Y-141281530D01*
X147169333Y-141329149D01*
X147121714Y-141424387D01*
X147074095Y-141614863D01*
X147074095Y-141852958D01*
X147121714Y-142043434D01*
X147169333Y-142138672D01*
X147216952Y-142186291D01*
X147312190Y-142233910D01*
X147407428Y-142233910D01*
X147502666Y-142186291D01*
X147550285Y-142138672D01*
X147597904Y-142043434D01*
X147645523Y-141852958D01*
X147645523Y-141614863D01*
X147597904Y-141424387D01*
X147550285Y-141329149D01*
X147502666Y-141281530D01*
X147407428Y-141233910D01*
X128881142Y-97133172D02*
X128928761Y-97085553D01*
X128976380Y-96942696D01*
X128976380Y-96847458D01*
X128928761Y-96704601D01*
X128833523Y-96609363D01*
X128738285Y-96561744D01*
X128547809Y-96514125D01*
X128404952Y-96514125D01*
X128214476Y-96561744D01*
X128119238Y-96609363D01*
X128024000Y-96704601D01*
X127976380Y-96847458D01*
X127976380Y-96942696D01*
X128024000Y-97085553D01*
X128071619Y-97133172D01*
X128976380Y-98085553D02*
X128976380Y-97514125D01*
X128976380Y-97799839D02*
X127976380Y-97799839D01*
X128119238Y-97704601D01*
X128214476Y-97609363D01*
X128262095Y-97514125D01*
X127976380Y-98942696D02*
X127976380Y-98752220D01*
X128024000Y-98656982D01*
X128071619Y-98609363D01*
X128214476Y-98514125D01*
X128404952Y-98466506D01*
X128785904Y-98466506D01*
X128881142Y-98514125D01*
X128928761Y-98561744D01*
X128976380Y-98656982D01*
X128976380Y-98847458D01*
X128928761Y-98942696D01*
X128881142Y-98990315D01*
X128785904Y-99037934D01*
X128547809Y-99037934D01*
X128452571Y-98990315D01*
X128404952Y-98942696D01*
X128357333Y-98847458D01*
X128357333Y-98656982D01*
X128404952Y-98561744D01*
X128452571Y-98514125D01*
X128547809Y-98466506D01*
X101830142Y-74985642D02*
X101877761Y-74938023D01*
X101925380Y-74795166D01*
X101925380Y-74699928D01*
X101877761Y-74557071D01*
X101782523Y-74461833D01*
X101687285Y-74414214D01*
X101496809Y-74366595D01*
X101353952Y-74366595D01*
X101163476Y-74414214D01*
X101068238Y-74461833D01*
X100973000Y-74557071D01*
X100925380Y-74699928D01*
X100925380Y-74795166D01*
X100973000Y-74938023D01*
X101020619Y-74985642D01*
X101020619Y-75366595D02*
X100973000Y-75414214D01*
X100925380Y-75509452D01*
X100925380Y-75747547D01*
X100973000Y-75842785D01*
X101020619Y-75890404D01*
X101115857Y-75938023D01*
X101211095Y-75938023D01*
X101353952Y-75890404D01*
X101925380Y-75318976D01*
X101925380Y-75938023D01*
X101020619Y-76318976D02*
X100973000Y-76366595D01*
X100925380Y-76461833D01*
X100925380Y-76699928D01*
X100973000Y-76795166D01*
X101020619Y-76842785D01*
X101115857Y-76890404D01*
X101211095Y-76890404D01*
X101353952Y-76842785D01*
X101925380Y-76271357D01*
X101925380Y-76890404D01*
X129357357Y-142138672D02*
X129404976Y-142186291D01*
X129547833Y-142233910D01*
X129643071Y-142233910D01*
X129785928Y-142186291D01*
X129881166Y-142091053D01*
X129928785Y-141995815D01*
X129976404Y-141805339D01*
X129976404Y-141662482D01*
X129928785Y-141472006D01*
X129881166Y-141376768D01*
X129785928Y-141281530D01*
X129643071Y-141233910D01*
X129547833Y-141233910D01*
X129404976Y-141281530D01*
X129357357Y-141329149D01*
X128404976Y-142233910D02*
X128976404Y-142233910D01*
X128690690Y-142233910D02*
X128690690Y-141233910D01*
X128785928Y-141376768D01*
X128881166Y-141472006D01*
X128976404Y-141519625D01*
X127547833Y-141567244D02*
X127547833Y-142233910D01*
X127785928Y-141186291D02*
X128024023Y-141900577D01*
X127404976Y-141900577D01*
M02*
